<svg width="1440" height="140" viewBox="0 0 1440 140" fill="none" xmlns="http://www.w3.org/2000/svg">
<path d="M778.338 59.1297C349.5 -73.9121 0 59.1297 0 59.1297V139.588H1440V59.1297C1440 59.1297 1207.18 192.172 778.338 59.1297Z" fill="#F5F5F5" fill-opacity="0.6"/>
<path d="M778.338 66.3569C329.5 -14.1235 0 66.3569 0 66.3569V139.588H1440V66.3569C1440 66.3569 1227.18 146.837 778.338 66.3569Z" fill="#F5F5F5" fill-opacity="0.6"/>
<path d="M778.338 91.9181C332.5 5.08786 0 91.9181 0 91.9181V137.588H1440V91.9181C1440 91.9181 1224.18 178.748 778.338 91.9181Z" fill="#F5F5F5" fill-opacity="0.6"/>
<path d="M778.338 108.857C291.69 47.5017 0 108.857 0 108.857V139.588H1440V108.857C1440 108.857 1264.99 170.212 778.338 108.857Z" fill="#F5F5F5"/>
</svg>
