<svg width="1440" height="325" viewBox="0 0 1440 325" fill="none" xmlns="http://www.w3.org/2000/svg">
<path d="M778.338 63.1296C248.5 -77.5 0 63.1296 0 63.1296V143.588H1440V63.1296C1440 63.1296 1308.18 203.759 778.338 63.1296Z" fill="#D00101" fill-opacity="0.6"/>
<path d="M778.338 70.3569C215.676 -16.7863 0 70.3569 0 70.3569V143.588H1440V70.3569C1440 70.3569 1341 157.5 778.338 70.3569Z" fill="#D00101" fill-opacity="0.6"/>
<path d="M778.338 95.9181C418.676 25.8712 0 95.9181 0 95.9181V141.588H1440V95.9181C1440 95.9181 1138 165.965 778.338 95.9181Z" fill="#D00101" fill-opacity="0.6"/>
<path d="M778.338 112.857C303.176 62.7134 0 112.857 0 112.857V325H1440V112.857C1440 112.857 1253.5 163 778.338 112.857Z" fill="#D00101"/>
</svg>
