<svg width="1440" height="190" viewBox="0 0 1440 190" fill="none" xmlns="http://www.w3.org/2000/svg">
<path fill-rule="evenodd" clip-rule="evenodd" d="M0.862154 115L0 114.946V75.7883L80 78.9461C160 82.104 320 88.4197 480 82.7355C618.182 77.8265 756.364 63.9672 894.546 50.1079C916.364 47.9196 938.182 45.7313 960 43.5783C1120 27.789 1280 13.8945 1360 6.94726L1440 0V115V126.945V187H0V115H0.862154Z" fill="#B40404"/>
<path d="M0 117.635L80 122.687C160 127.74 320 137.845 480 135.319C640 132.792 800 117.635 960 104.372C1120 91.1089 1280 79.7406 1360 74.0565L1440 68.3724V36.7939L1360 40.5834C1280 44.3728 1120 51.9516 960 69.004C800 86.0563 640 112.582 480 120.793C320 129.003 160 118.898 80 113.845L0 108.793V117.635Z" fill="#BC0303"/>
<path d="M0 187.224H80C160 183.434 320 183.165 480 170.534C640 157.903 800 140.219 960 134.534C1120 128.85 1280 135.166 1360 138.324L1440 141.482V68.2197L1360 73.9038C1280 79.588 1120 90.9562 960 104.219C800 117.482 640 132.64 480 135.166C320 137.692 160 127.587 80 122.535L0 117.482V187.224Z" fill="#C00202"/>
<path fill-rule="evenodd" clip-rule="evenodd" d="M1440 190V138.304L1360 135.856C1280 133.408 1120 128.511 960 132.918C847.407 136.019 734.815 143.728 622.222 151.436C574.815 154.682 527.407 157.927 480 160.829C320 170.623 160.001 176.499 80.0005 179.437L80 179.437L0 182.375V190H1440Z" fill="#C60101"/>
</svg>
